<svg width="12" height="13" viewBox="0 0 12 13" fill="none" xmlns="http://www.w3.org/2000/svg">
<path d="M10.5469 2.71205C10.5469 1.46652 9.85714 0.642857 8.47768 0.241072C7.90179 0.0803574 7.24554 0 6.50893 0H0V0.542411H1.60714V11.5112H0V12.0536H6.87054C8.70536 12.0536 10.0312 11.5112 10.8482 10.4263C11.25 9.86384 11.4509 9.24777 11.4509 8.57812C11.4509 7.09152 10.6406 6.13393 9.02009 5.70536C8.72545 5.625 8.41741 5.56473 8.09598 5.52455C9.30134 5.13616 10.0714 4.47322 10.4062 3.53572C10.5 3.25447 10.5469 2.97991 10.5469 2.71205ZM5.38393 0.542411C6.87054 0.569197 7.62054 1.34598 7.63393 2.87277C7.63393 4.1317 7.16518 4.89509 6.22768 5.16295C6.01339 5.21652 5.78571 5.2433 5.54464 5.2433H4.41964V0.542411H5.38393ZM6.06696 5.8058C7.13839 5.8058 7.84821 6.30804 8.19643 7.3125C8.31696 7.66071 8.37723 8.03571 8.37723 8.4375C8.37723 10.2589 7.6808 11.2701 6.28795 11.471C6.11384 11.4978 5.93973 11.5112 5.76562 11.5112H4.41964V5.8058H6.06696Z" fill="#1B1B1B"/>
</svg>
