<svg width="12" height="12" viewBox="0 0 12 12" fill="none" xmlns="http://www.w3.org/2000/svg">
<path d="M3.33333 4C2.96514 4 2.66667 4.29848 2.66667 4.66667C2.66667 5.03486 2.96514 5.33333 3.33333 5.33333H8.66667C9.03486 5.33333 9.33333 5.03486 9.33333 4.66667C9.33333 4.29848 9.03486 4 8.66667 4H3.33333Z" fill="#828282"/>
<path fill-rule="evenodd" clip-rule="evenodd" d="M2 0C0.895431 0 0 0.895431 0 2V10C0 11.1046 0.895431 12 2 12H10C11.1046 12 12 11.1046 12 10V2C12 0.895431 11.1046 0 10 0H2ZM1.33333 10V2.66667H10.6667V10C10.6667 10.3682 10.3682 10.6667 10 10.6667H2C1.63181 10.6667 1.33333 10.3682 1.33333 10Z" fill="#828282"/>
</svg>
