<svg width="20" height="19" viewBox="0 0 20 19" fill="none" xmlns="http://www.w3.org/2000/svg">
<path fill-rule="evenodd" clip-rule="evenodd" d="M15.6378 4.10987V4.10987C15.2648 4.10987 14.9268 3.89487 14.7678 3.55887C14.4808 2.95087 14.1158 2.17387 13.8998 1.75087C13.5808 1.12187 13.0638 0.755872 12.3478 0.750872C12.3358 0.749872 7.66379 0.749872 7.65179 0.750872C6.93579 0.755872 6.41979 1.12187 6.09979 1.75087C5.88479 2.17387 5.51979 2.95087 5.23279 3.55887C5.07379 3.89487 4.73479 4.10987 4.36279 4.10987V4.10987C2.36679 4.10987 0.749786 5.72687 0.749786 7.72187V13.6579C0.749786 15.6519 2.36679 17.2699 4.36279 17.2699H15.6378C17.6328 17.2699 19.2498 15.6519 19.2498 13.6579V7.72187C19.2498 5.72687 17.6328 4.10987 15.6378 4.10987Z" stroke="#1B1B1B" stroke-width="1.5" stroke-linecap="round" stroke-linejoin="round"/>
<path fill-rule="evenodd" clip-rule="evenodd" d="M6.82139 10.3345C6.82039 12.0875 8.25139 13.5215 10.0014 13.5205C11.7484 13.5185 13.1754 12.0905 13.1784 10.3415C13.1814 8.58547 11.7554 7.15447 10.0034 7.15247C8.24139 7.15047 6.80739 8.60547 6.82139 10.3345Z" stroke="#1B1B1B" stroke-width="1.5" stroke-linecap="round" stroke-linejoin="round"/>
<path d="M14.9025 7.99509C14.8059 7.98517 14.7105 7.95996 14.6036 7.91695C14.4847 7.86413 14.3818 7.79695 14.2823 7.69586C14.1035 7.5057 14 7.25703 14 7.00049C14 6.86422 14.0279 6.72916 14.0823 6.60681C14.1368 6.48285 14.2014 6.37829 14.3182 6.26456C14.407 6.18719 14.498 6.12493 14.6224 6.07013C14.9913 5.92396 15.4301 6.0113 15.7043 6.28541C15.7865 6.36639 15.8557 6.46411 15.8941 6.54651L15.9169 6.60494C15.9721 6.72916 16 6.86422 16 7.00049C16 7.26222 15.8978 7.50428 15.7081 7.70577C15.5442 7.87081 15.3289 7.9723 15.0992 7.99509L15 8L14.9025 7.99509Z" fill="#1B1B1B"/>
</svg>
