<svg width="20" height="18" viewBox="0 0 20 18" fill="none" xmlns="http://www.w3.org/2000/svg">
<path d="M18.8772 13.5882H11.6431" stroke="#1B1B1B" stroke-width="1.5" stroke-linecap="round" stroke-linejoin="round"/>
<path fill-rule="evenodd" clip-rule="evenodd" d="M6.64306 13.88C6.64306 15.4706 5.35364 16.76 3.76306 16.76C2.17247 16.76 0.883057 15.4706 0.883057 13.88C0.883057 12.2882 2.17247 11 3.76306 11C5.35364 11 6.64306 12.2882 6.64306 13.88Z" stroke="#1B1B1B" stroke-width="1.5" stroke-linecap="round" stroke-linejoin="round"/>
<path d="M11.6426 4.58824H18.8779" stroke="#1B1B1B" stroke-width="1.5" stroke-linecap="round" stroke-linejoin="round"/>
<path fill-rule="evenodd" clip-rule="evenodd" d="M0.882568 4.22644C0.882568 5.8182 2.17198 7.10644 3.76257 7.10644C5.35316 7.10644 6.64257 5.8182 6.64257 4.22644C6.64257 2.63585 5.35316 1.34644 3.76257 1.34644C2.17198 1.34644 0.882568 2.63585 0.882568 4.22644Z" stroke="#1B1B1B" stroke-width="1.5" stroke-linecap="round" stroke-linejoin="round"/>
</svg>
