<svg width="15" height="15" viewBox="0 0 15 15" fill="none" xmlns="http://www.w3.org/2000/svg">
<path d="M14.5517 1.26967L13.5095 0.227491C13.2217 -0.0758304 12.7162 -0.0758304 12.4129 0.227491L5.44423 7.19611L7.58304 9.33492L14.5517 2.3663C14.855 2.06298 14.855 1.55744 14.5517 1.26967ZM3.88874 8.55717C3.26992 8.55717 2.67645 8.80299 2.23889 9.24056C1.80132 9.67813 1.5555 10.2716 1.5555 10.8904C1.5555 11.9093 0.653308 12.4459 0 12.4459C0.715528 13.3948 1.94437 14.0014 3.11099 14.0014C3.93608 14.0014 4.72737 13.6736 5.31079 13.0902C5.89422 12.5068 6.22198 11.7155 6.22198 10.8904C6.22198 10.2716 5.97616 9.67813 5.53859 9.24056C5.10102 8.80299 4.50755 8.55717 3.88874 8.55717Z" fill="#1B1B1B"/>
</svg>
