<svg width="24" height="24" viewBox="0 0 24 24" fill="none" xmlns="http://www.w3.org/2000/svg">
<path d="M20.8772 16.5882H13.6431" stroke="#1B1B1B" stroke-width="1.5" stroke-linecap="round" stroke-linejoin="round"/>
<path fill-rule="evenodd" clip-rule="evenodd" d="M8.64306 16.88C8.64306 18.4706 7.35364 19.76 5.76306 19.76C4.17247 19.76 2.88306 18.4706 2.88306 16.88C2.88306 15.2882 4.17247 14 5.76306 14C7.35364 14 8.64306 15.2882 8.64306 16.88Z" stroke="#1B1B1B" stroke-width="1.5" stroke-linecap="round" stroke-linejoin="round"/>
<path d="M13.6426 7.58824H20.8779" stroke="#1B1B1B" stroke-width="1.5" stroke-linecap="round" stroke-linejoin="round"/>
<path fill-rule="evenodd" clip-rule="evenodd" d="M2.88257 7.22644C2.88257 8.8182 4.17198 10.1064 5.76257 10.1064C7.35316 10.1064 8.64257 8.8182 8.64257 7.22644C8.64257 5.63585 7.35316 4.34644 5.76257 4.34644C4.17198 4.34644 2.88257 5.63585 2.88257 7.22644Z" stroke="#1B1B1B" stroke-width="1.5" stroke-linecap="round" stroke-linejoin="round"/>
</svg>
