<svg width="14" height="12" viewBox="0 0 14 12" fill="none" xmlns="http://www.w3.org/2000/svg">
<path fill-rule="evenodd" clip-rule="evenodd" d="M9.00004 2.00002H5.00004C4.63185 2.00002 4.33337 2.2985 4.33337 2.66669V9.33335C4.33337 9.70154 4.63185 10 5.00004 10H9.00004C9.36823 10 9.66671 9.70154 9.66671 9.33335V2.66669C9.66671 2.2985 9.36823 2.00002 9.00004 2.00002ZM5.00004 0.666687C3.89547 0.666687 3.00004 1.56212 3.00004 2.66669V9.33335C3.00004 10.4379 3.89547 11.3334 5.00004 11.3334H9.00004C10.1046 11.3334 11 10.4379 11 9.33335V2.66669C11 1.56212 10.1046 0.666687 9.00004 0.666687H5.00004Z" fill="#1B1B1B"/>
<path d="M0.333374 2.00002C0.333374 1.63183 0.631851 1.33335 1.00004 1.33335C1.36823 1.33335 1.66671 1.63183 1.66671 2.00002V10C1.66671 10.3682 1.36823 10.6667 1.00004 10.6667C0.631851 10.6667 0.333374 10.3682 0.333374 10V2.00002Z" fill="#1B1B1B"/>
<path d="M12.3334 2.00002C12.3334 1.63183 12.6319 1.33335 13 1.33335C13.3682 1.33335 13.6667 1.63183 13.6667 2.00002V10C13.6667 10.3682 13.3682 10.6667 13 10.6667C12.6319 10.6667 12.3334 10.3682 12.3334 10V2.00002Z" fill="#1B1B1B"/>
</svg>
