<svg width="24" height="24" viewBox="0 0 24 24" fill="none" xmlns="http://www.w3.org/2000/svg">
<mask id="mask0" style="mask-type:alpha" maskUnits="userSpaceOnUse" x="0" y="0" width="24" height="24">
<rect width="24" height="24" fill="white"/>
</mask>
<g mask="url(#mask0)">
<path d="M5.75223 6.48884H7.35937V13.5402C7.38616 16.6339 9.04018 18.1875 12.3214 18.2009C14.5179 18.2009 15.8906 17.3504 16.4397 15.6496C16.6406 14.9933 16.7411 14.2098 16.7411 13.2991V6.48884H18.3482V5.94643H14.4107V6.48884H16.0179V13.4196C16.0045 16.2054 14.9129 17.6049 12.7433 17.6183C11.2299 17.6183 10.3058 16.8214 9.97098 15.2277C9.86384 14.7054 9.81027 14.096 9.81027 13.3996V6.48884H11.4174V5.94643H5.75223V6.48884Z" fill="#1B1B1B"/>
<path d="M5.55134 19.0246H18.4487V20.0491H5.55134V19.0246Z" fill="#1B1B1B"/>
</g>
</svg>
